<svg xmlns="http://www.w3.org/2000/svg" xmlns:xlink="http://www.w3.org/1999/xlink" viewBox="0 0 2070.06 1080"><defs><style>.cls-1,.cls-4,.cls-5,.cls-6{fill:none;}.cls-2{fill:#212121;}.cls-3{clip-path:url(#clip-path);}.cls-4,.cls-5,.cls-6{stroke:#f4f4f4;stroke-miterlimit:10;}.cls-4{stroke-width:5px;}.cls-5{stroke-width:3px;}</style><clipPath id="clip-path" transform="translate(150.06 0)"><rect class="cls-1" width="1920" height="1080"/></clipPath></defs><title>guitarbackground</title><g id="Layer_1" data-name="Layer 1"><rect class="cls-2" x="150.06" width="1920" height="1080"/></g><g id="Layer_4" data-name="Layer 4"><g class="cls-3"><path class="cls-4" d="M0,199c-1.13.41,14.5-17.5,83-20,169.5-1.5,227.5,153.5,286,149,63-3,109-63,179-59s74.5,35.5,81,53c14.5,49.5-91.5,55.5-82,111,.89,33,37,47,37,47l806,5c0,.35,36.5,7.5,63-20,21.5-2.5,188.5-.5,238-10,1.5.5,1,28,1,28s15,20,13,31-6,5-6,11c0,0,6,4,5,13s-9.5,30.5-13,33c1.5,10.5.51,25.32,0,25-19.5-8.5-149.57-5.26-233-8,0,0-26.5-21.5-49.5-21.5s-824,15-824,15-37,24-36,48c-4,69,79,51,84,104,0,34-37,59-78,61-71,3-138.76-58.92-184-57-46,2-118,151-278,153s-240-135-240-135l43-475Z" transform="translate(150.06 0)"/><path class="cls-5" d="M85,256c-10,0-16.29,6-17,14,0,29,49.51,45.21,78,56,26.75,10.13,32,22,36,25,57-4,65,0,120,30,0,0-11,13-1,19,22.83,7,15-23,15-23-8-16-45.91-30.55-74-44-29.87-14.3-31-22-31-22s-39,5-69-4-52-27-52-27,9-7,7-15S85,256,85,256Z" transform="translate(150.06 0)"/><path class="cls-5" d="M244,733.14l-1.95.92c-29.87,14.3-31,22-31,22s-39-5-69,4-52,27-52,27,9,7,7,15-12,9-12,9c-10,0-16.29-6-17-14,0-29,49.51-45.21,78-56,26.75-10.13,32-22,36-25,26.29,1.84,42.15,2,57-1.33a23.52,23.52,0,0,0,.49,7.77C239.5,724.6,240.6,728.68,244,733.14Z" transform="translate(150.06 0)"/><path class="cls-5" d="M244,733.14c6.23,8.32,20.27,17.93,49.55,18.36,61.29.9,108-71,159-78s65-11,75-25,18-60,18-60h-22v21h-83v-21h-99v22h-83c4,7,4,25,4,32,0,11.47-21.83,50.24-23.49,72.23" transform="translate(150.06 0)"/><rect class="cls-5" x="408.56" y="457.5" width="81" height="152"/><rect class="cls-5" x="413.56" y="472.5" width="71" height="121"/><rect class="cls-5" x="591.56" y="455.5" width="81" height="152"/><rect class="cls-5" x="596.56" y="470.5" width="71" height="121"/><rect class="cls-5" x="1531.56" y="486.5" width="8" height="80"/><path class="cls-5" d="M1496.23,463.64s.27-14.14-2.73-15.14-10-18-6-20,10-4,13-4,14,1,15,4-4,19-7,21,0,14.14,0,14.14Z" transform="translate(150.06 0)"/><path class="cls-5" d="M1557.14,462.2s1.06-14.1-1.88-15.26-9-18.54-4.86-20.31,10.21-3.43,13.2-3.26,13.92,1.78,14.75,4.84-5.06,18.74-8.17,20.57-.8,14.11-.8,14.11Z" transform="translate(150.06 0)"/><path class="cls-5" d="M1619.7,459.36s.65-14.12-2.32-15.2-9.51-18.27-5.45-20.16,10.1-3.72,13.1-3.64,14,1.38,14.89,4.4-4.52,18.89-7.57,20.81-.39,14.13-.39,14.13Z" transform="translate(150.06 0)"/><path class="cls-5" d="M1496.22,589.77s1,14.11-1.94,15.26-9,18.49-5,20.28,10.2,3.48,13.19,3.33,13.93-1.73,14.78-4.78-5-18.76-8.08-20.61-.74-14.11-.74-14.11Z" transform="translate(150.06 0)"/><path class="cls-5" d="M1558.68,590.05s1,14.36-2.07,15.54-9.53,18.83-5.23,20.65,10.69,3.52,13.83,3.36,14.62-1.78,15.51-4.88-5.2-19.09-8.45-21-.75-14.37-.75-14.37Z" transform="translate(150.06 0)"/><path class="cls-5" d="M1622.22,590.77s1,14.11-1.94,15.26-9,18.49-5,20.28,10.2,3.48,13.19,3.33,13.93-1.73,14.78-4.78-5-18.76-8.08-20.61-.74-14.11-.74-14.11Z" transform="translate(150.06 0)"/><circle class="cls-5" cx="210.56" cy="728.5" r="17"/><circle class="cls-5" cx="296.56" cy="705.5" r="10"/><circle class="cls-5" cx="282.56" cy="818.5" r="18"/><circle class="cls-5" cx="173.56" cy="848.5" r="17"/><circle class="cls-5" cx="300.56" cy="461.5" r="8"/><circle class="cls-5" cx="300.56" cy="606.5" r="8"/><polyline class="cls-5" points="733.56 480.5 672.71 480.5 672.71 579.95 734.56 581.5"/><circle class="cls-6" cx="1653.56" cy="486.5" r="15"/><circle class="cls-6" cx="1780.56" cy="481.5" r="15"/><circle class="cls-6" cx="1716.56" cy="485.5" r="15"/><circle class="cls-6" cx="1653.56" cy="567.5" r="15"/><circle class="cls-6" cx="1717.56" cy="567.5" r="15"/><circle class="cls-6" cx="1780.56" cy="569.5" r="15"/><circle class="cls-5" cx="371.56" cy="473.5" r="11"/><circle class="cls-5" cx="371.56" cy="596.5" r="11"/><line class="cls-5" x1="364.56" y1="588.01" x2="364.56" y2="481.99"/><line class="cls-5" x1="378.56" y1="588.01" x2="378.56" y2="481.99"/><rect class="cls-5" x="284.56" y="479.5" width="32" height="108"/><path class="cls-5" d="M134.5,479.5v-18s1-10,17-10,15,10,15,10v18" transform="translate(150.06 0)"/><path class="cls-5" d="M134.5,589v18s1,10,17,10,15-10,15-10V589" transform="translate(150.06 0)"/></g></g></svg>